<?xml version="1.0" encoding="UTF-8" standalone="no"?>
<!-- Created with Inkscape (http://www.inkscape.org/) -->
<svg
   xmlns:svg="http://www.w3.org/2000/svg"
   xmlns="http://www.w3.org/2000/svg"
   version="1.0"
   width="1081.0968"
   height="156.97017"
   viewBox="0 0 1 1"
   id="body">
  <defs
     id="defs38" />
  <title
     id="title3">SVG drawing</title>
  <desc
     id="desc5">This was produced by version 4.2 of GNU libplot, a free library for exporting 2-D vector graphics.</desc>
  <g
     transform="matrix(7.916616e-3,0,0,-7.916616e-3,-3.0364988,1.1441154)"
     id="content"
     xml:space="preserve"
     style="font-style:normal;font-variant:normal;font-weight:normal;font-stretch:normal;letter-spacing:normal;word-spacing:normal;text-anchor:start;fill:none;fill-opacity:1;stroke:#000000;stroke-linecap:butt;stroke-linejoin:miter;stroke-miterlimit:10.43299961;stroke-dasharray:none;stroke-dashoffset:0;stroke-opacity:1">
<path
   d="M 371.21875,674.8125 C 363.06879,674.81248 355.90621,676.15627 349.78125,678.84375 C 343.65628,681.51872 338.77498,685.35628 335.1875,690.34375 C 331.58752,695.3437 329.45,700.85629 328.75,706.90625 C 328.06251,712.94371 327.71875,723.23634 327.71875,737.75 L 327.71875,762.46875 C 327.71876,777.33614 328.1,787.74004 328.8125,793.6875 C 329.52499,799.63996 331.73752,805.12878 335.5,810.1875 C 339.23747,815.24125 344.21254,819.04752 350.375,821.5625 C 356.53747,824.08625 363.4813,825.375 371.21875,825.375 C 379.36869,825.37498 386.51879,824.01498 392.65625,821.34375 C 398.78121,818.65876 403.63752,814.83372 407.25,809.84375 C 410.83747,804.85377 412.98125,799.32121 413.65625,793.28125 C 414.34376,787.24631 414.71875,776.97991 414.71875,762.46875 L 414.71875,737.75 L 414.71875,736.375 L 414.6875,735 L 414.6875,733.6875 L 414.6875,732.375 L 414.6875,731.09375 L 414.6875,729.84375 L 414.65625,728.625 L 414.625,727.4375 L 414.625,726.25 L 414.59375,725.125 L 414.5625,724 L 414.5625,722.90625 L 414.53125,721.8125 L 414.5,720.78125 L 414.46875,719.78125 L 414.4375,718.78125 L 414.40625,717.8125 L 414.375,716.875 L 414.3125,715.96875 L 414.28125,715.09375 L 414.25,714.21875 L 414.1875,713.40625 L 414.15625,712.59375 L 414.09375,711.8125 L 414.0625,711.0625 L 414,710.3125 L 413.9375,709.625 L 413.875,708.9375 L 413.8125,708.3125 L 413.75,707.6875 L 413.6875,707.0625 L 413.625,706.5 C 412.92499,700.56256 410.68748,695.06247 406.9375,690 C 403.20003,684.95005 398.21246,681.14998 392.0625,678.625 C 385.90004,676.10005 378.9562,674.8125 371.21875,674.8125 z M 371.40625,699.1875 C 373.76872,699.18751 375.3,700.13751 376.0625,702 C 376.8125,703.88749 377.21875,708.21254 377.21875,714.9375 L 377.21875,781.4375 L 377.21875,782.21875 L 377.1875,783 L 377.1875,783.75 L 377.1875,784.46875 L 377.1875,785.1875 L 377.1875,785.90625 L 377.15625,786.5625 L 377.125,787.25 L 377.125,787.875 L 377.09375,788.5 L 377.0625,789.125 L 377.0625,789.6875 L 377.03125,790.28125 L 377,790.8125 L 376.96875,791.34375 L 376.9375,791.875 L 376.90625,792.375 L 376.875,792.84375 L 376.8125,793.3125 L 376.78125,793.75 L 376.75,794.1875 L 376.6875,794.5625 L 376.625,794.96875 L 376.59375,795.34375 L 376.53125,795.6875 L 376.5,796 L 376.4375,796.3125 L 376.375,796.625 L 376.3125,796.90625 L 376.25,797.15625 L 376.1875,797.40625 L 376.125,797.625 C 375.4,799.88499 373.72498,801 371.125,801 C 368.57503,801.00003 366.95,800.03124 366.25,798.0625 C 365.56251,796.09499 365.21875,790.90245 365.21875,782.5 L 365.21875,714.9375 C 365.21876,707.48754 365.76251,702.98124 366.8125,701.46875 C 367.88749,699.94379 369.39376,699.1875 371.40625,699.1875 z"
   transform="matrix(0.8000051,0,0,-0.8000051,18.000115,684.00438)"
   id="path27"
   style="fill:#003366;fill-rule:nonzero;stroke:#003366;stroke-width:0" /><polygon
   points="826.92,26.141 879.16,26.141 879.16,49.285 856.92,49.285 856.92,74.711 875.8,74.711 875.8,96.625 856.92,96.625 856.92,118.56 877.02,118.56 877.02,141.7 826.92,141.7 826.92,26.141 "
   id="polygon9"
   style="fill:#003366;fill-rule:nonzero;stroke:#003366;stroke-width:0" />
<path
   d="M 819.99,102.31 L 819.98,104.3 L 819.95,106.22 L 819.9,108.08 L 819.82,109.87 L 819.73,111.6 L 819.61,113.26 L 819.47,114.85 L 819.31,116.37 L 819.13,117.83 L 818.93,119.22 L 818.7,120.55 L 818.46,121.81 L 818.19,123 L 817.91,124.13 L 817.6,125.18 L 817.27,126.18 C 815.46,131.29 811.67,135.56 805.91,138.99 C 800.15,142.41 792.83,144.14 783.98,144.14 C 777.45,144.14 771.68,143.02 766.65,140.82 C 761.62,138.6 757.69,135.56 754.85,131.72 C 752.02,127.85 750.31,123.85 749.75,119.68 C 749.17,115.53 748.88,109.27 748.88,100.95 L 748.88,67.18 C 748.88,55.852 749.81,47.367 751.67,41.734 C 753.53,36.09 757.32,31.668 763.03,28.488 C 768.75,25.297 776.02,23.703 784.84,23.703 C 793.31,23.703 800.45,25.594 806.23,29.344 C 812.02,33.105 815.76,37.492 817.45,42.492 C 819.14,47.496 819.99,55.973 819.99,67.926 L 819.99,72.426 L 789.99,72.426 L 789.99,57.883 C 789.99,51.523 789.64,47.488 788.95,45.773 C 788.24,44.051 786.75,43.188 784.48,43.188 C 782.1,43.188 780.57,44.047 779.9,45.773 C 779.22,47.484 778.88,51.152 778.88,56.785 L 778.88,110.55 C 778.88,116.43 779.22,120.24 779.9,122 C 780.57,123.77 782.18,124.64 784.7,124.64 C 786.92,124.64 788.36,123.92 789.02,122.46 C 789.67,121.01 789.99,117.35 789.99,111.48 L 789.99,91.309 L 819.99,91.309 L 819.99,102.31 z"
   id="path11"
   style="fill:#003366;fill-rule:nonzero;stroke:#003366;stroke-width:0" />
<polygon
   points="716.18,141.7 716.18,89.668 699.28,141.7 674.16,141.7 674.16,26.141 699.28,26.141 699.28,78.676 714.96,26.141 741.29,26.141 741.29,141.7 716.18,141.7 "
   id="polygon13"
   style="fill:#003366;fill-rule:nonzero;stroke:#003366;stroke-width:0" />
<polygon
   points="617.07,26.141 669.3,26.141 669.3,49.285 647.07,49.285 647.07,74.711 665.95,74.711 665.95,96.625 647.07,96.625 647.07,118.56 667.18,118.56 667.18,141.7 617.07,141.7 617.07,26.141 "
   id="polygon15"
   style="fill:#003366;fill-rule:nonzero;stroke:#003366;stroke-width:0" />
<path
   d="M 579.16,141.7 L 579.16,56.484 C 579.16,50.723 578.89,47.062 578.34,45.516 C 577.79,43.965 576.56,43.188 574.65,43.188 C 572.98,43.188 571.86,43.898 571.3,45.305 C 570.77,46.711 570.49,49.926 570.49,54.98 L 570.49,141.7 L 540.5,141.7 L 540.5,73.312 C 540.5,60.273 540.73,51.727 541.21,47.652 C 541.68,43.59 543.22,39.715 545.84,36.059 C 548.45,32.391 552.4,29.414 557.68,27.129 C 562.95,24.852 569.03,23.703 575.94,23.703 C 582.16,23.703 587.57,24.668 592.15,26.598 C 596.74,28.527 600.43,31.359 603.24,35.09 C 606.05,38.824 607.73,42.469 608.3,46.008 C 608.88,49.559 609.16,55.707 609.16,64.461 L 609.16,141.7 L 579.16,141.7 z"
   id="path17"
   style="fill:#003366;fill-rule:nonzero;stroke:#003366;stroke-width:0" />
<polygon
   points="488.86,141.7 488.86,26.141 537.27,26.141 537.27,49.285 518.85,49.285 518.85,141.7 488.86,141.7 "
   id="polygon19"
   style="fill:#003366;fill-rule:nonzero;stroke:#003366;stroke-width:0" />
<polygon
   points="432.64,26.141 462.63,26.141 462.63,74.711 481.37,74.711 481.37,96.625 462.63,96.625 462.63,118.56 483.65,118.56 483.65,141.7 432.64,141.7 432.64,26.141 "
   id="polygon21"
   style="fill:#003366;fill-rule:nonzero;stroke:#003366;stroke-width:0" />
<polygon
   points="399.18,141.7 399.18,89.668 382.27,141.7 357.15,141.7 357.15,26.141 382.27,26.141 382.27,78.676 397.95,26.141 424.29,26.141 424.29,141.7 399.18,141.7 "
   id="polygon23"
   style="fill:#003366;fill-rule:nonzero;stroke:#003366;stroke-width:0" />


<path
   d="M 273.48,91.309 L 243.48,91.309 L 243.48,111.48 C 243.48,117.35 243.16,121.01 242.5,122.46 C 241.85,123.92 240.4,124.64 238.18,124.64 C 235.66,124.64 234.06,123.77 233.39,122 C 232.71,120.24 232.36,116.43 232.36,110.55 L 232.36,56.785 C 232.36,51.152 232.71,47.484 233.39,45.773 C 234.06,44.047 235.59,43.188 237.96,43.188 C 240.24,43.188 241.73,44.051 242.42,45.773 C 243.13,47.488 243.48,51.523 243.48,57.883 L 243.48,72.426 L 273.48,72.426 L 273.48,67.926 C 273.48,55.973 272.63,47.496 270.94,42.492 C 269.25,37.492 265.51,33.105 259.72,29.344 C 253.93,25.594 246.8,23.703 238.32,23.703 C 229.5,23.703 222.23,25.297 216.52,28.488 C 210.81,31.668 207.02,36.09 205.16,41.734 C 203.3,47.367 202.38,55.852 202.38,67.18 L 202.38,100.95 C 202.38,109.27 202.66,115.53 203.23,119.68 C 203.8,123.85 205.5,127.85 208.34,131.72 C 211.18,135.56 215.1,138.6 220.13,140.82 C 225.16,143.02 230.93,144.14 237.45,144.14 C 246.32,144.14 253.64,142.41 259.39,138.99 C 265.16,135.56 268.95,131.29 270.77,126.18 C 272.57,121.07 273.48,113.1 273.48,102.31 L 273.48,91.309 z"
   id="path29"
   style="fill:#003366;fill-rule:nonzero;stroke:#003366;stroke-width:0" />
<path
   d="M 33.434,42.93 L 33.482,43.881 L 33.628,44.822 L 33.868,45.755 L 34.201,46.677 L 34.625,47.589 L 35.14,48.489 L 35.742,49.377 L 36.43,50.253 L 37.202,51.115 L 38.058,51.964 L 38.994,52.798 L 40.01,53.617 L 41.103,54.421 L 42.272,55.208 L 43.515,55.978 L 44.831,56.731 L 46.217,57.466 L 47.673,58.182 L 49.195,58.878 L 50.784,59.555 L 52.436,60.211 L 54.15,60.846 L 55.924,61.459 L 57.757,62.05 L 59.647,62.617 L 61.593,63.161 L 63.592,63.681 L 65.642,64.176 L 67.743,64.645 L 69.892,65.089 L 72.088,65.505 L 74.328,65.895 L 80.113,74.414 C 42.176,71.078 14.277,59.887 14.277,46.586 C 14.277,33.027 43.289,21.656 82.367,18.574 L 82.262,18.852 C 53.945,22.113 33.434,31.652 33.434,42.93 z"
   id="path31"
   style="fill:#003366;fill-rule:nonzero;stroke:#003366;stroke-width:0" />
<path
   d="M 127.27,74.414 L 133.06,65.891 C 157.18,61.891 173.94,53.113 173.94,42.93 C 173.94,31.742 153.76,22.266 125.8,18.934 L 125.65,18.629 C 164.4,21.789 193.09,33.102 193.09,46.586 C 193.09,59.887 165.2,71.074 127.27,74.414 z"
   id="path33"
   style="fill:#003366;fill-rule:nonzero;stroke:#003366;stroke-width:0" />
<path
   d="M 86.227,83.285 L 86.315,83.149 L 86.398,83.007 L 86.475,82.86 L 86.546,82.709 L 86.611,82.554 L 86.671,82.396 L 86.725,82.233 L 86.774,82.068 L 86.816,81.9 L 86.853,81.73 L 86.885,81.558 L 86.91,81.384 L 86.93,81.209 L 86.945,81.032 L 86.953,80.855 L 86.956,80.678 L 86.953,80.5 L 86.945,80.323 L 86.93,80.147 L 86.91,79.972 L 86.885,79.798 L 86.853,79.625 L 86.816,79.455 L 86.774,79.287 L 86.725,79.122 L 86.671,78.96 L 86.611,78.801 L 86.546,78.646 L 86.475,78.495 L 86.398,78.349 L 86.315,78.207 L 86.227,78.07 L 58.715,37.578 C 57.738,36.148 58.363,34.969 60.094,34.969 L 85.176,34.969 C 86.914,34.969 89.137,36.148 90.105,37.578 L 101.92,54.957 C 102.89,56.395 104.5,56.395 105.46,54.957 L 117.27,37.578 C 118.24,36.148 120.46,34.969 122.2,34.969 L 147.27,34.969 C 149.01,34.969 149.63,36.148 148.66,37.578 L 121.17,78.07 C 120.19,79.5 120.19,81.855 121.17,83.285 L 173.04,140.55 C 173.91,142.06 173.22,143 171.52,142.63 L 151.85,138.82 C 150.14,138.52 148,136.95 146.65,135.9 L 116.42,113.76 C 115.34,112.73 114.48,113.52 115.64,114.81 C 115.64,114.81 120.98,120.79 120.98,126.66 C 120.98,136.22 113.24,143.98 103.7,143.98 C 94.141,143.98 86.387,136.22 86.387,126.66 C 86.387,120.78 91.746,114.81 91.746,114.81 C 92.902,113.51 92.168,112.81 90.973,113.75 L 60.719,135.9 C 59.219,137.05 57.234,138.52 55.527,138.82 L 35.844,142.63 C 34.145,143 33.465,142.07 34.32,140.55 L 86.227,83.285 z"
   id="path35"
   style="fill:#003366;fill-rule:nonzero;stroke:#003366;stroke-width:0" />
</g></svg>
