<?xml version="1.0" encoding="UTF-8" standalone="no"?>
<!-- Created with Inkscape (http://www.inkscape.org/) -->

<svg
   xmlns:dc="http://purl.org/dc/elements/1.1/"
   xmlns:cc="http://creativecommons.org/ns#"
   xmlns:rdf="http://www.w3.org/1999/02/22-rdf-syntax-ns#"
   xmlns:svg="http://www.w3.org/2000/svg"
   xmlns="http://www.w3.org/2000/svg"
   xmlns:sodipodi="http://sodipodi.sourceforge.net/DTD/sodipodi-0.dtd"
   xmlns:inkscape="http://www.inkscape.org/namespaces/inkscape"
   width="200"
   height="64.356148"
   id="svg2"
   version="1.1"
   inkscape:version="0.48.2 r9819"
   sodipodi:docname="New document 1">
  <defs
     id="defs4" />
  <sodipodi:namedview
     id="base"
     pagecolor="#ffffff"
     bordercolor="#666666"
     borderopacity="1.0"
     inkscape:pageopacity="0.0"
     inkscape:pageshadow="2"
     inkscape:zoom="2.8284271"
     inkscape:cx="113.30596"
     inkscape:cy="-0.51366009"
     inkscape:document-units="px"
     inkscape:current-layer="g3054"
     showgrid="false"
     fit-margin-top="0.5"
     fit-margin-left="0.5"
     fit-margin-right="0.5"
     fit-margin-bottom="0.5"
     inkscape:window-width="1351"
     inkscape:window-height="1036"
     inkscape:window-x="562"
     inkscape:window-y="-20"
     inkscape:window-maximized="0">
    <inkscape:grid
       type="xygrid"
       id="grid2996"
       empspacing="5"
       visible="true"
       enabled="true"
       snapvisiblegridlinesonly="true" />
  </sodipodi:namedview>
  <metadata
     id="metadata7">
    <rdf:RDF>
      <cc:Work
         rdf:about="">
        <dc:format>image/svg+xml</dc:format>
        <dc:type
           rdf:resource="http://purl.org/dc/dcmitype/StillImage" />
        <dc:title></dc:title>
      </cc:Work>
    </rdf:RDF>
  </metadata>
  <g
     inkscape:label="Layer 1"
     inkscape:groupmode="layer"
     id="layer1"
     transform="translate(-216.07358,-549.28882)">
    <flowRoot
       xml:space="preserve"
       id="flowRoot3017"
       style="font-size:40px;font-style:normal;font-weight:normal;line-height:125%;letter-spacing:0px;word-spacing:0px;fill:#000000;fill-opacity:1;stroke:none;font-family:Sans"><flowRegion
         id="flowRegion3019"><rect
           id="rect3021"
           width="76.785713"
           height="79.285713"
           x="292.5"
           y="636.64789" /></flowRegion><flowPara
         id="flowPara3023"></flowPara></flowRoot>    <g
       transform="matrix(1.8232952,0,0,1.8232952,-597.71681,-124.12247)"
       style="font-size:40px;font-style:normal;font-variant:normal;font-weight:normal;font-stretch:normal;line-height:125%;letter-spacing:0px;word-spacing:0px;fill:#000000;fill-opacity:1;stroke:none;font-family:Segoe UI;-inkscape-font-specification:Segoe UI"
       id="flowRoot2998">
      <g
         id="g3054"
         transform="translate(0,-91.137241)">
        <g
           id="g3082"
           style="fill:#eb3c00;fill-opacity:1"
           transform="matrix(0.74069815,0,0,0.74069815,98.5698,-8.2505871)">
          <path
             style="fill:#eb3c00;fill-opacity:1;stroke:none"
             d="m 469.87279,671.02938 0,-28.51979 25.22905,-9.32378 13.71144,4.38766 0,38.39203 -13.71144,4.13302 -25.22905,-9.06914 25.22905,3.0361 0,-33.20126 -16.45373,3.8392 0,22.48676 z"
             id="path3025"
             inkscape:connector-curvature="0"
             sodipodi:nodetypes="cccccccccccc" />
          <path
             d="m 535.67969,671.23033 c -3.97137,0 -7.1517,-1.3086 -9.54102,-3.92578 -2.38932,-2.61719 -3.58398,-6.02213 -3.58398,-10.21485 0,-4.50519 1.21744,-8.09893 3.65234,-10.78125 2.43489,-2.68226 5.74869,-4.02341 9.94141,-4.02344 3.86717,3e-5 6.9824,1.30211 9.3457,3.90625 2.36325,2.60419 3.54489,6.00914 3.54492,10.21485 -3e-5,4.57032 -1.21096,8.1836 -3.63281,10.83984 -2.4219,2.65625 -5.66408,3.98438 -9.72656,3.98438 z m 0.23437,-25.97657 c -2.94272,3e-5 -5.33204,1.06123 -7.16797,3.1836 -1.83594,2.12241 -2.75391,4.90887 -2.7539,8.35937 -1e-5,3.45053 0.89517,6.22722 2.68554,8.33008 1.79036,2.10287 4.12434,3.1543 7.00196,3.1543 3.0729,0 5.49477,-1.0026 7.26562,-3.00781 1.77081,-2.00521 2.65623,-4.81119 2.65625,-8.41797 -2e-5,-3.6979 -0.8594,-6.55597 -2.57812,-8.57422 -1.71877,-2.01821 -4.08856,-3.02732 -7.10938,-3.02735 z"
             style="fill:#eb3c00;fill-opacity:1;stroke:none;font-family:Segoe UI;-inkscape-font-specification:Segoe UI"
             id="path3032"
             inkscape:connector-curvature="0" />
          <path
             style="fill:#eb3c00;fill-opacity:1;stroke:none;font-family:Segoe UI;-inkscape-font-specification:Segoe UI"
             d="m 560.71107,640.717 c -1.8099,3e-5 -3.31384,0.61648 -4.52477,1.8339 -1.21094,1.21747 -1.81677,2.87407 -1.81677,4.9704 l 0,3.23933 -3.41072,0 0,2.74228 3.41072,0 0,17.25928 3.18791,0 0,-17.25928 7.79838,0 0,17.25928 3.18791,0 0,-17.25928 4.67903,0 0,-2.74228 -4.67903,0 0,-3.08508 c -10e-6,-2.8255 1.11972,-4.23338 3.3593,-4.2334 0.79426,2e-5 1.50027,0.16265 2.12528,0.51418 l 0,-2.87941 c -0.57293,-0.23435 -1.33726,-0.35989 -2.31381,-0.35992 -1.8099,3e-5 -3.33098,0.61648 -4.54191,1.8339 -1.21094,1.21747 -1.81677,2.87407 -1.81677,4.9704 l 0,3.23933 -7.79838,0 0,-3.08508 c -1e-5,-2.8255 1.11972,-4.23338 3.3593,-4.2334 0.79426,2e-5 1.50027,0.16265 2.12528,0.51418 l 0,-2.87941 c -0.57293,-0.23435 -1.3544,-0.35989 -2.33095,-0.35992 z"
             id="path3034"
             inkscape:connector-curvature="0"
             sodipodi:nodetypes="ccsccccccccccccccscccccsccscccc" />
          <path
             d="m 577.87841,645.68345 c -0.57292,3e-5 -1.0612,-0.19529 -1.46484,-0.58594 -0.40365,-0.39059 -0.60547,-0.88539 -0.60547,-1.48437 0,-0.59893 0.20182,-1.09698 0.60547,-1.49414 0.40364,-0.39711 0.89192,-0.59568 1.46484,-0.5957 0.58593,2e-5 1.08398,0.19859 1.49414,0.5957 0.41015,0.39716 0.61523,0.89521 0.61524,1.49414 -10e-6,0.57294 -0.20509,1.06122 -0.61524,1.46484 -0.41016,0.40367 -0.90821,0.6055 -1.49414,0.60547 z m 1.5625,25.07813 -3.20312,0 0,-20 3.20312,0 z"
             style="fill:#eb3c00;fill-opacity:1;stroke:none;font-family:Segoe UI;-inkscape-font-specification:Segoe UI"
             id="path3038"
             inkscape:connector-curvature="0" />
          <path
             d="m 597.6385,669.84361 c -1.53647,0.92448 -3.35939,1.38672 -5.46875,1.38672 -2.85157,0 -5.153,-0.92774 -6.9043,-2.78321 -1.7513,-1.85546 -2.62695,-4.26106 -2.62695,-7.21679 0,-3.29426 0.94401,-5.94074 2.83203,-7.93946 1.88802,-1.99867 4.40754,-2.99802 7.55859,-2.99804 1.7578,2e-5 3.30728,0.32554 4.64844,0.97656 l 0,3.28125 c -1.48439,-1.04165 -3.07293,-1.56248 -4.76562,-1.5625 -2.04428,2e-5 -3.72071,0.73244 -5.0293,2.19726 -1.3086,1.46486 -1.9629,3.38869 -1.96289,5.77149 -10e-6,2.34376 0.61523,4.19271 1.8457,5.54687 1.23046,1.35417 2.88085,2.03126 4.95117,2.03125 1.74478,10e-6 3.38541,-0.57942 4.92188,-1.73828 z"
             style="fill:#eb3c00;fill-opacity:1;stroke:none;font-family:Segoe UI;-inkscape-font-specification:Segoe UI"
             id="path3040"
             inkscape:connector-curvature="0" />
          <path
             d="m 617.22438,661.56236 -14.12109,0 c 0.0521,2.22657 0.65103,3.94532 1.79687,5.15625 1.14583,1.21094 2.72135,1.81641 4.72656,1.8164 2.2526,10e-6 4.32291,-0.74218 6.21094,-2.22656 l 0,3.00781 c -1.75783,1.27605 -4.08204,1.91407 -6.97265,1.91407 -2.82553,0 -5.04558,-0.90821 -6.66016,-2.72461 -1.61459,-1.8164 -2.42188,-4.37174 -2.42188,-7.66602 0,-3.11196 0.88216,-5.64777 2.64649,-7.60742 1.76432,-1.95962 3.95507,-2.93943 6.57226,-2.93945 2.61718,2e-5 4.64192,0.84637 6.07422,2.53906 1.43228,1.69272 2.14842,4.04298 2.14844,7.05078 z m -3.28125,-2.71485 c -0.013,-1.84894 -0.459,-3.28774 -1.33789,-4.3164 -0.87892,-1.02863 -2.09962,-1.54295 -3.66211,-1.54297 -1.51042,2e-5 -2.79298,0.54038 -3.84766,1.62109 -1.05469,1.08075 -1.70573,2.49351 -1.95312,4.23828 z"
             style="fill:#eb3c00;fill-opacity:1;stroke:none;font-family:Segoe UI;-inkscape-font-specification:Segoe UI"
             id="path3042"
             inkscape:connector-curvature="0" />
          <g
             id="flowRoot3045"
             style="font-size:40px;font-style:normal;font-variant:normal;font-weight:normal;font-stretch:normal;line-height:125%;letter-spacing:0px;word-spacing:0px;fill:#eb3c00;fill-opacity:1;stroke:none;font-family:Segoe UI;-inkscape-font-specification:Segoe UI"
             transform="matrix(0.11041151,0,0,0.11041151,477.25701,575.52332)">
            <path
               id="path3067"
               style="fill:#eb3c00;fill-opacity:1;-inkscape-font-specification:Segoe UI"
               d="m 332.23437,887.36878 -8.08593,0 0,25.03907 -3.28125,0 0,-25.03907 -8.06641,0 0,-2.96875 19.43359,0 z"
               inkscape:connector-curvature="0" />
            <path
               id="path3069"
               style="fill:#eb3c00;fill-opacity:1;-inkscape-font-specification:Segoe UI"
               d="m 365.16406,912.40785 -3.26172,0 0,-18.78907 c -3e-5,-1.48435 0.0911,-3.30075 0.27344,-5.44921 l -0.0781,0 c -0.31253,1.26304 -0.59248,2.16799 -0.83985,2.71484 l -9.57031,21.52344 -1.60156,0 -9.55078,-21.36719 c -0.27345,-0.62498 -0.5534,-1.58201 -0.83985,-2.87109 l -0.0781,0 c 0.10416,1.11981 0.15624,2.94924 0.15625,5.48828 l 0,18.75 -3.16407,0 0,-28.00782 4.33594,0 8.59375,19.53125 c 0.66405,1.49741 1.09373,2.6172 1.28906,3.35938 l 0.11719,0 c 0.55988,-1.53645 1.0091,-2.68228 1.34766,-3.4375 l 8.76953,-19.45313 4.10156,0 z"
               inkscape:connector-curvature="0" />
          </g>
        </g>
      </g>
    </g>
  </g>
</svg>
