<?xml version="1.0" encoding="utf-8"?>
<!-- Generator: Adobe Illustrator 16.0.3, SVG Export Plug-In . SVG Version: 6.00 Build 0)  -->
<svg version="1.2" baseProfile="tiny" xmlns="http://www.w3.org/2000/svg" xmlns:xlink="http://www.w3.org/1999/xlink" x="0px"
	 y="0px" width="132px" height="48px" viewBox="0 0 132 48" xml:space="preserve">
<g id="labels.01" display="none">
</g>
<g id="successFactors">
	<g>
		<g>
			<path fill="#666666" d="M12.309,30.352c-2.214,0-3.854-1.167-4.122-3.042h2.263c0.304,0.743,1.199,1.015,1.859,1.015
				c0.895,0,1.57-0.271,1.57-0.777c0-0.489-0.305-0.692-1.824-0.93c-1.555-0.235-3.632-0.658-3.632-2.601
				c0-1.369,1.199-2.788,3.716-2.788c1.993,0,3.48,1.082,3.768,2.72h-2.314c-0.135-0.405-0.625-0.727-1.453-0.727
				c-1.031,0-1.452,0.373-1.452,0.693c0,0.456,0.643,0.608,1.724,0.777c2.161,0.355,3.715,0.828,3.715,2.719
				C16.125,29.134,14.537,30.352,12.309,30.352z"/>
			<path fill="#666666" d="M24.922,30.148h-2.128v-0.793c-0.541,0.624-1.302,0.996-2.213,0.996c-2.062,0-3.43-1.537-3.43-3.818
				v-5.085h2.229v5.085c0,0.49,0.17,1.705,1.623,1.705c0.996,0,1.688-0.742,1.688-1.705v-5.085h2.229V30.148z"/>
			<path fill="#666666" d="M30.556,30.352c-2.619,0-4.495-2.027-4.495-4.545c0-2.517,1.876-4.578,4.495-4.578
				c2.095,0,3.683,1.183,4.189,3.142h-2.383c-0.305-0.591-0.997-1.098-1.807-1.098c-1.234,0-2.231,1.149-2.231,2.552
				c0,1.368,0.997,2.5,2.231,2.5c0.826,0,1.536-0.507,1.823-1.115h2.382C34.254,29.185,32.665,30.352,30.556,30.352z"/>
			<path fill="#666666" d="M40.033,30.352c-2.62,0-4.493-2.027-4.493-4.545c0-2.517,1.873-4.578,4.493-4.578
				c2.095,0,3.683,1.183,4.189,3.142h-2.382c-0.304-0.591-0.997-1.098-1.808-1.098c-1.234,0-2.229,1.149-2.229,2.552
				c0,1.368,0.995,2.5,2.229,2.5c0.827,0,1.537-0.507,1.823-1.115h2.383C43.732,29.185,42.145,30.352,40.033,30.352z"/>
			<path fill="#666666" d="M47.282,26.668c0.287,1.064,1.132,1.723,2.179,1.723c0.743,0,1.47-0.32,1.841-1.012h2.382
				c-0.506,1.773-2.044,2.973-4.205,2.973c-2.45,0-4.461-2.027-4.461-4.545c0-2.517,2.011-4.578,4.461-4.578
				c2.567,0,4.696,1.993,4.375,5.439H47.282z M51.64,24.844c-0.27-1.014-1.115-1.655-2.179-1.655c-1.014,0-1.824,0.641-2.146,1.655
				H51.64z"/>
			<path fill="#666666" d="M58.771,30.352c-2.215,0-3.854-1.167-4.123-3.042h2.263c0.305,0.743,1.2,1.015,1.86,1.015
				c0.895,0,1.569-0.271,1.569-0.777c0-0.489-0.305-0.692-1.823-0.93c-1.556-0.235-3.634-0.658-3.634-2.601
				c0-1.369,1.2-2.788,3.717-2.788c1.993,0,3.479,1.082,3.767,2.72h-2.312c-0.136-0.405-0.627-0.727-1.454-0.727
				c-1.029,0-1.453,0.373-1.453,0.693c0,0.456,0.643,0.608,1.724,0.777c2.162,0.355,3.716,0.828,3.716,2.719
				C62.587,29.134,61,30.352,58.771,30.352z"/>
			<path fill="#666666" d="M67.488,30.352c-2.214,0-3.853-1.167-4.123-3.042h2.264c0.305,0.743,1.199,1.015,1.859,1.015
				c0.896,0,1.57-0.271,1.57-0.777c0-0.489-0.304-0.692-1.824-0.93c-1.554-0.235-3.632-0.658-3.632-2.601
				c0-1.369,1.2-2.788,3.716-2.788c1.993,0,3.48,1.082,3.769,2.72h-2.315c-0.134-0.405-0.624-0.727-1.453-0.727
				c-1.029,0-1.451,0.373-1.451,0.693c0,0.456,0.641,0.608,1.722,0.777c2.163,0.355,3.716,0.828,3.716,2.719
				C71.305,29.134,69.718,30.352,67.488,30.352z"/>
		</g>
		<g>
			<path fill="#666666" d="M73.165,30.282v-7.299h-1.183v-1.634h1.183v-0.205c0-1.317,0.35-2.3,1.041-2.92
				c0.524-0.48,1.2-0.724,2.007-0.724c0.17,0,0.349,0.011,0.53,0.032l0.116,0.014v1.562l-0.143-0.011
				c-0.094-0.007-0.183-0.01-0.27-0.01c-0.489,0-0.837,0.115-1.099,0.363c-0.434,0.401-0.498,1.234-0.498,1.694v0.205h1.977v1.634
				h-1.977v7.299H73.165z"/>
			<path fill="#666666" d="M80.507,30.485c-1.706,0-3.529-0.742-3.529-2.82c0-1.765,1.235-2.724,3.674-2.853
				c2.375-0.113,2.695-0.594,2.695-1.049c0-0.689-0.728-1.084-1.996-1.084c-0.73,0-1.981,0.187-2.131,1.437l-0.015,0.118H77.46
				l0.008-0.141c0.106-1.821,1.637-2.998,3.899-2.998c2.284,0,3.647,1.061,3.647,2.836v4.797c0,0.412,0.112,1.04,0.243,1.37
				l0.073,0.184h-1.7l-0.035-0.076c-0.1-0.214-0.169-0.466-0.206-0.741C82.716,30.134,81.726,30.485,80.507,30.485L80.507,30.485z
				 M83.347,25.734c-0.64,0.405-1.613,0.502-2.493,0.56c-1.942,0.122-2.189,0.797-2.189,1.371c0,1.131,1.449,1.22,1.894,1.22
				c1.326,0,2.756-0.549,2.789-2.084V25.734z"/>
			<path fill="#666666" d="M90.649,30.485c-2.478,0-4.492-2.099-4.492-4.679c0-2.598,2.015-4.711,4.492-4.711
				c1.957,0,3.558,1.148,4.18,2.996l0.058,0.176h-1.803l-0.035-0.072c-0.5-0.963-1.374-1.516-2.399-1.516
				c-1.539,0-2.79,1.402-2.79,3.127c0,1.706,1.251,3.094,2.79,3.094c1.043,0,1.917-0.553,2.396-1.515l0.037-0.073h1.803
				l-0.057,0.174C94.226,29.336,92.624,30.485,90.649,30.485L90.649,30.485z"/>
			<path fill="#666666" d="M99.432,30.312c-1.893,0-3.068-1.28-3.068-3.339V22.95h-1.185v-1.634h1.185v-1.859h1.684v1.859h1.977
				v1.634h-1.977v4.022c0,1.149,0.558,1.733,1.656,1.733c0.07,0,0.141-0.004,0.214-0.007l0.142-0.01v1.578l-0.119,0.013
				C99.768,30.301,99.597,30.312,99.432,30.312L99.432,30.312z"/>
			<path fill="#666666" d="M111.356,30.282v-8.966h1.651v0.741c0.573-0.61,1.422-0.965,2.339-0.965c0.129,0,0.256,0.007,0.381,0.021
				l0.117,0.015v1.678l-0.141-0.008c-0.069-0.004-0.139-0.005-0.207-0.005c-1.179,0-2.438,0.609-2.438,2.322v5.168H111.356z"/>
			<path fill="#666666" d="M120.116,30.5c-2.2,0-3.776-1.213-4.018-3.089l-0.019-0.149h1.714l0.021,0.109
				c0.17,0.93,1.072,1.529,2.302,1.529c1.344,0,2.046-0.647,2.046-1.286c0-0.519-0.165-0.938-2.249-1.22
				c-2.169-0.312-3.512-0.853-3.512-2.581c0-1.31,1.11-2.718,3.546-2.718c2.079,0,3.489,1.088,3.681,2.839l0.014,0.146h-1.708
				l-0.021-0.104c-0.181-0.825-0.896-1.297-1.965-1.297c-1.034,0-1.844,0.476-1.844,1.084c0,0.482,0.314,0.702,2.084,0.983
				c1.983,0.313,3.626,0.738,3.626,2.784C123.813,29.307,122.327,30.5,120.116,30.5L120.116,30.5z"/>
			<path fill="#666666" d="M106.061,30.134h-1.304l-0.217-0.218c-0.278-0.28-2.742-2.763-3.286-3.547
				c-0.832-1.202-0.946-2.705-0.288-3.829c0.509-0.869,1.162-1.208,2.331-1.208c1.097,0,1.749,0.46,2.112,0.874
				c0.363-0.414,1.014-0.874,2.112-0.874c1.169,0,1.821,0.339,2.329,1.208c0.658,1.125,0.545,2.628-0.288,3.829
				c-0.543,0.784-3.007,3.267-3.285,3.547L106.061,30.134L106.061,30.134z M105.372,28.656h0.072
				c1.062-1.074,2.572-2.65,2.904-3.128c0.575-0.832,0.528-1.726,0.227-2.242c-0.186-0.317-0.277-0.477-1.054-0.477
				c-0.786,0-1.053,0.392-1.131,0.561c-0.119,0.259-0.228,0.74-0.256,0.889l-1.451,0c-0.043-0.222-0.151-0.661-0.257-0.891
				c-0.077-0.167-0.344-0.56-1.13-0.56c-0.776,0-0.869,0.16-1.055,0.477c-0.303,0.516-0.349,1.411,0.228,2.243
				C102.802,26.006,104.312,27.582,105.372,28.656L105.372,28.656z"/>
		</g>
	</g>
</g>
</svg>
