<?xml version="1.0" encoding="utf-8"?>
<!-- Generator: Adobe Illustrator 16.0.0, SVG Export Plug-In . SVG Version: 6.00 Build 0)  -->
<!DOCTYPE svg PUBLIC "-//W3C//DTD SVG 1.1//EN" "http://www.w3.org/Graphics/SVG/1.1/DTD/svg11.dtd">
<svg version="1.1" id="Layer_1" xmlns="http://www.w3.org/2000/svg" xmlns:xlink="http://www.w3.org/1999/xlink" x="0px" y="0px"
	 width="220px" height="42px" viewBox="0 0 220 42" enable-background="new 0 0 220 42" xml:space="preserve">
<g>
	<defs>
		<rect id="SVGID_1_" width="220" height="42"/>
	</defs>
	<clipPath id="SVGID_2_">
		<use xlink:href="#SVGID_1_"  overflow="visible"/>
	</clipPath>
	<path clip-path="url(#SVGID_2_)" fill="#00A9D6" d="M212.404,24.087c-0.973-0.5-9.924-6.191-9.375-7.08
		c0.545-0.891,10.381,3.357,11.353,3.858c0.97,0.499,1.318,1.626,0.769,2.518C214.606,24.271,213.375,24.587,212.404,24.087
		 M215.15,0.942c0.55,0.891,0.201,2.018-0.769,2.517c-0.972,0.501-10.808,4.749-11.353,3.858c-0.549-0.889,8.402-6.58,9.375-7.079
		C213.375-0.264,214.606,0.053,215.15,0.942 M89.785,9.862c-4.575,0-7.343,2.007-9.534,5.251c-0.966-1.887-3.026-5.251-9.531-5.251
		c-4.962,0-7.288,2.536-8.641,5.251h-0.127c0-0.863-0.034-1.722-0.071-2.575c-0.229-0.973-1.16-1.71-2.291-1.73
		c-1.309-0.021-2.387,0.918-2.44,2.108c0.071,1.271,0.163,2.668,0.163,4.204v18.444v0.015v0.131c0.048,1.256,1.177,2.254,2.556,2.24
		c1.27-0.016,2.307-0.887,2.472-2.009V24.729c0-6.312,1.425-10.619,7.928-10.619c4.121,0,5.796,2.359,5.796,8.437v13.019h0.007
		v0.005v0.016v0.132c0.043,1.256,1.172,2.251,2.55,2.236c1.273-0.013,2.311-0.886,2.473-2.007V24.733l-0.005-0.008V22.25
		c0-4.955,3.543-8.141,7.797-8.141c5.859,0,5.927,3.717,5.927,7.55v13.905h0.009c0,0.03-0.005,0.064-0.004,0.099
		c0.016,1.275,1.159,2.295,2.553,2.279c1.279-0.013,2.324-0.9,2.469-2.035V21.423C99.841,14.286,98.417,9.862,89.785,9.862
		 M136.594,9.862c-4.572,0-7.343,2.007-9.527,5.251c-0.971-1.887-3.028-5.251-9.534-5.251c-4.966,0-7.287,2.536-8.641,5.251h-0.128
		c0-0.863-0.035-1.722-0.071-2.575c-0.23-0.973-1.158-1.71-2.294-1.73c-1.307-0.021-2.381,0.918-2.437,2.108
		c0.074,1.271,0.164,2.668,0.164,4.204v18.444v0.015v0.131c0.046,1.256,1.179,2.254,2.554,2.24c1.272-0.016,2.311-0.887,2.47-2.009
		V24.729c0-6.312,1.424-10.619,7.932-10.619c4.123,0,5.799,2.359,5.799,8.437v13.019h0.004v0.005v0.016v0.132
		c0.042,1.256,1.173,2.251,2.556,2.236c1.267-0.013,2.304-0.886,2.467-2.007V24.733l-0.007-0.008V22.25
		c0-4.955,3.546-8.141,7.798-8.141c5.861,0,5.929,3.717,5.929,7.55v13.905h0.01c0,0.03-0.006,0.064-0.003,0.099
		c0.017,1.275,1.157,2.295,2.549,2.279c1.282-0.013,2.325-0.9,2.471-2.035V21.423C146.652,14.286,145.227,9.862,136.594,9.862
		 M199.16,9.858c-0.032,0-0.07,0.004-0.107,0.004V9.855c-0.122,0.011-0.2,0.021-0.2,0.021c-4.848,0.075-8.501,2.562-9.829,5.237
		h-0.127c0-0.847-0.036-1.695-0.072-2.531l-0.013,0.003c-0.009-0.031-0.009-0.062-0.018-0.093c-0.271-1.196-1.551-1.963-2.853-1.713
		c-0.973,0.185-1.688,0.884-1.873,1.723c0.078,1.382,0.189,2.917,0.189,4.618v18.992c0.144,1.16,1.219,2.058,2.522,2.05
		c1.38-0.01,2.494-1.034,2.5-2.295v-0.057c0-0.026-0.003-0.051-0.003-0.075h0.003V24.729c0-6.312,2.706-10.264,8.828-10.264
		c0.288,0,0.59,0.019,0.881,0.045v-0.003c0.036,0.002,0.073,0.005,0.106,0.005c1.404,0.019,2.558-1.011,2.573-2.296
		C201.689,10.932,200.568,9.876,199.16,9.858 M155.783,21.848c0.779-4.837,4.334-8.061,10.148-8.061
		c5.821,0,9.375,3.223,9.698,8.061H155.783z M166.142,9.756c-8.889,0-15.458,5.956-15.458,14.511c0,8.02,5.794,14.509,15.265,14.509
		c4.524,0,8.162-1.018,11.262-3.613c0.836-0.808,0.861-2.087,0.028-2.921c-0.771-0.78-2.031-0.916-2.973-0.379
		c-1.972,1.723-4.727,2.717-8.078,2.717c-6.375,0-10.236-3.55-10.455-8.914l22.215,0.018c0.617,0,0.93-0.066,1.251-0.202
		c0.723-0.306,0.946-0.79,1.131-1.393c0.069-0.227,0.041-1.585,0.041-1.585C179.687,14.409,174.1,9.756,166.142,9.756 M26.907,7.545
		c0.011-0.031,0.026-0.061,0.037-0.092c0.426-1.221-0.316-2.527-1.641-2.916C24,4.158,22.62,4.789,22.153,5.947
		c-0.01,0.033-0.03,0.085-0.057,0.16c-0.004,0.011-0.006,0.021-0.011,0.031c-0.839,2.188-8.129,19.622-8.129,19.622h-0.131
		L5.224,5.824L5.221,5.821L5.102,5.539c-0.59-1.144-2.05-1.702-3.367-1.25C0.384,4.754-0.31,6.107,0.134,7.352
		C1.19,9.799,11.12,31.896,11.12,31.896l-0.653,1.313c-1.094,2.716-2.318,4.545-5.601,4.545c-0.317,0-1.421-0.061-1.493-0.065
		c-1.058-0.049-2.046,0.581-2.332,1.555c-0.327,1.109,0.383,2.249,1.586,2.564C3.496,41.948,4.389,42,5.191,42
		c6.049,0,8.049-3.189,10.046-7.846c0,0,10.97-25.106,11.473-26.153c0.08-0.166,0.149-0.314,0.206-0.453L26.907,7.545z
		 M47.714,26.673c-0.126,4.483-3.09,8.318-8.888,8.318c-3.8,0-6.635-1.3-6.635-4.777c0-3.718,4.124-5.309,10.502-5.309h5.021V26.673
		z M52.825,35.444l0.008-0.003c-0.06-0.686-0.095-1.379-0.095-2.042V21.541c0-7.786-3.736-11.679-12.625-11.679
		c-3.558,0-7.191,0.907-10.093,2.792c-0.81,0.727-0.952,1.905-0.273,2.776c0.751,0.964,2.211,1.187,3.265,0.499
		c0.026-0.015,0.049-0.039,0.076-0.056l0.013,0.015c2.125-1.183,4.671-1.779,7.142-1.779c4.702,0,7.471,2.066,7.471,6.077v0.825
		h-1.932c-7.408,0-19.002,0.53-19.002,9.675c0,5.367,5.091,8.198,11.207,8.198c4.576,0,7.927-2.007,9.921-4.836h0.134
		c0,0.624,0.003,1.401,0.056,2.178c0.224,1.156,1.41,1.958,2.691,1.794c1.318-0.168,2.236-1.28,2.051-2.484
		C52.839,35.504,52.827,35.475,52.825,35.444 M220,12.034c0,1.02-0.904,1.848-2.019,1.848s-11.964-0.713-11.964-1.733
		s10.85-1.963,11.964-1.963S220,11.013,220,12.034"/>
</g>
</svg>
